<svg xmlns="http://www.w3.org/2000/svg" width="20" height="18" viewBox="0 0 20 18">
  <metadata><?xpacket begin="﻿" id="W5M0MpCehiHzreSzNTczkc9d"?>
<x:xmpmeta xmlns:x="adobe:ns:meta/" x:xmptk="Adobe XMP Core 5.6-c138 79.159824, 2016/09/14-01:09:01        ">
   <rdf:RDF xmlns:rdf="http://www.w3.org/1999/02/22-rdf-syntax-ns#">
      <rdf:Description rdf:about=""/>
   </rdf:RDF>
</x:xmpmeta>
                                                                                                    
                                                                                                    
                                                                                                    
                                                                                                    
                                                                                                    
                                                                                                    
                                                                                                    
                                                                                                    
                                                                                                    
                                                                                                    
                                                                                                    
                                                                                                    
                                                                                                    
                                                                                                    
                                                                                                    
                                                                                                    
                                                                                                    
                                                                                                    
                                                                                                    
                                                                                                    
                           
<?xpacket end="w"?></metadata>
<defs>
    <style>
      .cls-1 {
        fill: #a5a5a5;
        fill-rule: evenodd;
      }
    </style>
  </defs>
  <path id="Forma_1" data-name="Forma 1" class="cls-1" d="M695.786,2416.06a0.718,0.718,0,0,0-.336-0.28,1.1,1.1,0,0,0-.435-0.09h-4.971c0.066-.53.137-0.99,0.211-1.37s0.145-.71.211-1a1.872,1.872,0,0,0-.1-1.13,3.728,3.728,0,0,0-.572-0.96,4.846,4.846,0,0,0-.708-0.71q-0.36-.285-0.51-0.39a1.009,1.009,0,0,0-.845-0.12,1.048,1.048,0,0,0-.621.6l-2.262,5.08h-2.287a0.965,0.965,0,0,0-.708.29,0.95,0.95,0,0,0-.286.71v10.06a0.95,0.95,0,0,0,.286.71,0.965,0.965,0,0,0,.708.29h9.2a2.5,2.5,0,0,0,.572-0.1,3.3,3.3,0,0,0,.832-0.35,3.719,3.719,0,0,0,.845-0.67,2.4,2.4,0,0,0,.585-1.1l1.392-8.64A1.006,1.006,0,0,0,695.786,2416.06Zm-16.157-.57h-2.908a0.73,0.73,0,0,0-.51.2,0.654,0.654,0,0,0-.211.5v11.11a0.68,0.68,0,0,0,.211.49,0.7,0.7,0,0,0,.51.21h2.908a0.7,0.7,0,0,0,.51-0.21,0.684,0.684,0,0,0,.211-0.49v-11.11a0.658,0.658,0,0,0-.211-0.5A0.73,0.73,0,0,0,679.629,2415.49Z" transform="translate(-676 -2410)"/>
</svg>
