<svg xmlns="http://www.w3.org/2000/svg" width="22" height="22" viewBox="0 0 22 22">
  <metadata><?xpacket begin="﻿" id="W5M0MpCehiHzreSzNTczkc9d"?>
<x:xmpmeta xmlns:x="adobe:ns:meta/" x:xmptk="Adobe XMP Core 5.6-c138 79.159824, 2016/09/14-01:09:01        ">
   <rdf:RDF xmlns:rdf="http://www.w3.org/1999/02/22-rdf-syntax-ns#">
      <rdf:Description rdf:about=""/>
   </rdf:RDF>
</x:xmpmeta>
                                                                                                    
                                                                                                    
                                                                                                    
                                                                                                    
                                                                                                    
                                                                                                    
                                                                                                    
                                                                                                    
                                                                                                    
                                                                                                    
                                                                                                    
                                                                                                    
                                                                                                    
                                                                                                    
                                                                                                    
                                                                                                    
                                                                                                    
                                                                                                    
                                                                                                    
                                                                                                    
                           
<?xpacket end="w"?></metadata>
<defs>
    <style>
      .cls-1 {
        fill-rule: evenodd;
      }
    </style>
  </defs>
  <path class="cls-1" d="M1297.99,451.055a0.5,0.5,0,0,0-.02-0.122c-0.01-.014-0.01-0.028-0.02-0.042a0.574,0.574,0,0,0-.08-0.131h0l-2.62-2.617v-2.56c0-.01-0.01-0.019-0.01-0.029a0.478,0.478,0,0,0-.02-0.118c0-.015-0.01-0.029-0.01-0.043-0.03-.048-0.06-0.095-0.09-0.134l-4.13-4.125a0.6,0.6,0,0,0-.13-0.09l-0.05-.015a0.426,0.426,0,0,0-.12-0.024,0.146,0.146,0,0,0-.02,0h-11.46a0.462,0.462,0,0,0-.46.458v6.685l-2.62,2.616h0a0.357,0.357,0,0,0-.08.131c-0.01.014-.01,0.028-0.02,0.042a0.5,0.5,0,0,0-.02.122,0.032,0.032,0,0,0-.01.028v8.708a0.462,0.462,0,0,0,.46.459h2.29v2.291a0.462,0.462,0,0,0,.46.459h15.58a0.462,0.462,0,0,0,.46-0.459V460.25h2.29a0.462,0.462,0,0,0,.46-0.459v-8.708C1298,451.073,1297.99,451.064,1297.99,451.055Zm-1.55-.43h-1.19v-1.186Zm-2.75-5.5h-2.57v-2.561Zm-14.02-3.209h10.54v3.667a0.455,0.455,0,0,0,.46.458h3.66v4.584h-14.66v-8.709Zm-0.92,7.523v1.186h-1.19Zm15.58,12.644h-14.66V460.25h14.66v1.833Zm2.75-2.75h-20.16v-7.792h20.16v7.792Zm-12.71-6.087a1.318,1.318,0,0,0-.51-0.268,1.991,1.991,0,0,0-.54-0.078h-1.53v5.516h0.92V456.2h0.65a1.662,1.662,0,0,0,.57-0.1,1.319,1.319,0,0,0,.48-0.312,1.636,1.636,0,0,0,.34-0.526,2.054,2.054,0,0,0,.13-0.736,1.794,1.794,0,0,0-.15-0.779A1.476,1.476,0,0,0,1284.37,453.246Zm-0.59,1.964a0.7,0.7,0,0,1-.54.23h-0.53v-1.753h0.53a0.745,0.745,0,0,1,.54.2,0.866,0.866,0,0,1,.21.647A0.967,0.967,0,0,1,1283.78,455.21Zm6.3,3.206h0.94v-2.368h1.41v-0.8h-1.41v-1.5h1.53V452.9h-2.47v5.516Zm-3.05-5.516h-1.38v5.516h1.38a1.889,1.889,0,0,0,1.61-.72,3.265,3.265,0,0,0,.55-2.03,3.3,3.3,0,0,0-.55-2.038A1.881,1.881,0,0,0,1287.03,452.9Zm1.14,3.611a2.1,2.1,0,0,1-.25.6,1.1,1.1,0,0,1-.39.362,1.033,1.033,0,0,1-.49.121h-0.45v-3.88h0.45a1.033,1.033,0,0,1,.49.121,1.1,1.1,0,0,1,.39.362,2.1,2.1,0,0,1,.25.608,3.619,3.619,0,0,1,.09.857A3.531,3.531,0,0,1,1288.17,456.511Z" transform="translate(-1276 -441)"/>
</svg>
