<svg xmlns="http://www.w3.org/2000/svg" width="17" height="17" viewBox="0 0 17 17">
  <metadata><?xpacket begin="﻿" id="W5M0MpCehiHzreSzNTczkc9d"?>
<x:xmpmeta xmlns:x="adobe:ns:meta/" x:xmptk="Adobe XMP Core 5.6-c138 79.159824, 2016/09/14-01:09:01        ">
   <rdf:RDF xmlns:rdf="http://www.w3.org/1999/02/22-rdf-syntax-ns#">
      <rdf:Description rdf:about=""/>
   </rdf:RDF>
</x:xmpmeta>
                                                                                                    
                                                                                                    
                                                                                                    
                                                                                                    
                                                                                                    
                                                                                                    
                                                                                                    
                                                                                                    
                                                                                                    
                                                                                                    
                                                                                                    
                                                                                                    
                                                                                                    
                                                                                                    
                                                                                                    
                                                                                                    
                                                                                                    
                                                                                                    
                                                                                                    
                                                                                                    
                           
<?xpacket end="w"?></metadata>
<defs>
    <style>
      .cls-1 {
        fill: #888;
        fill-rule: evenodd;
      }
    </style>
  </defs>
  <path class="cls-1" d="M420.5,286a8.5,8.5,0,1,0-8.5-8.5A8.509,8.509,0,0,0,420.5,286Zm0-16.15a7.651,7.651,0,1,1-7.651,7.651A7.659,7.659,0,0,1,420.5,269.849Zm-3.692,8.077h6.358L421.5,279.59a0.425,0.425,0,0,0,.6.6l2.388-2.389a0.421,0.421,0,0,0,0-.6l-2.388-2.389a0.424,0.424,0,0,0-.6.6l1.664,1.664h-6.361A0.425,0.425,0,1,0,416.808,277.926Z" transform="translate(-412 -269)"/>
</svg>
