<svg xmlns="http://www.w3.org/2000/svg" width="41" height="19" viewBox="0 0 41 19">
  <metadata><?xpacket begin="﻿" id="W5M0MpCehiHzreSzNTczkc9d"?>
<x:xmpmeta xmlns:x="adobe:ns:meta/" x:xmptk="Adobe XMP Core 5.6-c138 79.159824, 2016/09/14-01:09:01        ">
   <rdf:RDF xmlns:rdf="http://www.w3.org/1999/02/22-rdf-syntax-ns#">
      <rdf:Description rdf:about=""/>
   </rdf:RDF>
</x:xmpmeta>
                                                                                                    
                                                                                                    
                                                                                                    
                                                                                                    
                                                                                                    
                                                                                                    
                                                                                                    
                                                                                                    
                                                                                                    
                                                                                                    
                                                                                                    
                                                                                                    
                                                                                                    
                                                                                                    
                                                                                                    
                                                                                                    
                                                                                                    
                                                                                                    
                                                                                                    
                                                                                                    
                           
<?xpacket end="w"?></metadata>
<defs>
    <style>
      .cls-1 {
        fill: #363636;
        fill-rule: evenodd;
      }
    </style>
  </defs>
  <path class="cls-1" d="M1413,22.879l-0.05-6.677a0.765,0.765,0,0,0-.23-0.55h0a0.744,0.744,0,0,0-.53-0.232l-27.46-.3-0.05-3.449a3.68,3.68,0,0,0-1.04-2.53,3.469,3.469,0,0,0-2.46-1.073l-5.75-.062A3.31,3.31,0,0,0,1373,9.03a3.512,3.512,0,0,0-.99,2.508l0.12,11.785a3.7,3.7,0,0,0,1.04,2.531,3.468,3.468,0,0,0,2.46,1.072l5.75,0.062a3.311,3.311,0,0,0,2.43-1.02,3.513,3.513,0,0,0,.99-2.508l-0.04-3.655,16.41,0.177,0.02,2.77a0.79,0.79,0,0,0,.76.78l2.51,0.027a0.736,0.736,0,0,0,.74-0.765l-0.02-2.77,1.47,0.016,0.03,2.77a0.776,0.776,0,0,0,.76.78l4.82,0.052A0.745,0.745,0,0,0,1413,22.879Zm-4.83-.826-0.03-2.77a0.8,0.8,0,0,0-.22-0.549,0.785,0.785,0,0,0-.54-0.232l-2.97-.032a0.74,0.74,0,0,0-.74.764L1403.7,22l-1.02-.011-0.02-2.77a0.854,0.854,0,0,0-.23-0.548,0.744,0.744,0,0,0-.53-0.232l-17.9-.193a0.748,0.748,0,0,0-.75.764l0.05,4.427a1.967,1.967,0,0,1-.56,1.42,1.886,1.886,0,0,1-1.38.579l-5.75-.062a2.044,2.044,0,0,1-1.98-2.042l-0.12-11.785a1.967,1.967,0,0,1,.56-1.421,1.886,1.886,0,0,1,1.38-.579l5.75,0.062a1.966,1.966,0,0,1,1.39.609,2.127,2.127,0,0,1,.59,1.436l0.06,4.221a0.774,0.774,0,0,0,.76.778l27.46,0.3,0.01,1.513-1.37-.015a0.746,0.746,0,0,0-.74.764,0.781,0.781,0,0,0,.23.548,0.731,0.731,0,0,0,.53.232l1.36,0.015,0.02,2.075Zm-27.74-10.976-4.18-.045a1.361,1.361,0,0,0-1.33,1.425l0.1,10.008a1.481,1.481,0,0,0,.42,1.04,1.345,1.345,0,0,0,.94.414h0l4.18,0.045a1.281,1.281,0,0,0,.97-0.434,1.418,1.418,0,0,0,.36-0.991l-0.1-10.008A1.435,1.435,0,0,0,1380.43,11.077Zm-3.91,11.3-0.1-9.8,3.87,0.042,0.1,9.8Z" transform="translate(-1372 -8)"/>
</svg>
