<svg xmlns="http://www.w3.org/2000/svg" width="12.312" height="14.688" viewBox="0 0 12.312 14.688">
  <metadata><?xpacket begin="﻿" id="W5M0MpCehiHzreSzNTczkc9d"?>
<x:xmpmeta xmlns:x="adobe:ns:meta/" x:xmptk="Adobe XMP Core 5.6-c138 79.159824, 2016/09/14-01:09:01        ">
   <rdf:RDF xmlns:rdf="http://www.w3.org/1999/02/22-rdf-syntax-ns#">
      <rdf:Description rdf:about=""/>
   </rdf:RDF>
</x:xmpmeta>
                                                                                                    
                                                                                                    
                                                                                                    
                                                                                                    
                                                                                                    
                                                                                                    
                                                                                                    
                                                                                                    
                                                                                                    
                                                                                                    
                                                                                                    
                                                                                                    
                                                                                                    
                                                                                                    
                                                                                                    
                                                                                                    
                                                                                                    
                                                                                                    
                                                                                                    
                                                                                                    
                           
<?xpacket end="w"?></metadata>
<defs>
    <style>
      .cls-1 {
        fill-rule: evenodd;
      }
    </style>
  </defs>
  <path id="Forma_1" data-name="Forma 1" class="cls-1" d="M914.034,97.662a5.765,5.765,0,0,1-1.913-.69,14.981,14.981,0,0,1-4.513-4.112,15.156,15.156,0,0,1-2.737-5.484c-0.359-1.566-.2-2.79.429-3.275,0.091-.07.183-0.145,0.279-0.223a2.629,2.629,0,0,1,1.981-.867,2.221,2.221,0,0,1,1.413,1.21c1.275,2.131.5,2.723-.408,3.41l-0.16.122c-0.148.114-.476,0.692,1.512,3.323a12.961,12.961,0,0,0,1.681,1.9,1.175,1.175,0,0,0,1.093.445l0.161-.125c0.892-.7,1.662-1.3,3.359.5a2.245,2.245,0,0,1,.782,1.7,2.654,2.654,0,0,1-1.349,1.705c-0.1.073-.2,0.143-0.285,0.213A1.754,1.754,0,0,1,914.034,97.662Zm-6.588-14.2a2.4,2.4,0,0,0-1.582.778c-0.1.08-.194,0.158-0.288,0.23-0.468.361-.571,1.462-0.263,2.807a14.687,14.687,0,0,0,2.657,5.31,14.493,14.493,0,0,0,4.367,3.986c1.2,0.655,2.28.843,2.747,0.482,0.093-.072.192-0.145,0.3-0.219a2.356,2.356,0,0,0,1.163-1.376,1.863,1.863,0,0,0-.66-1.338c-1.413-1.5-1.916-1.108-2.751-.454l-0.163.128c-0.4.308-.958,0.152-1.665-0.462a13.324,13.324,0,0,1-1.746-1.975c-1.65-2.183-2.1-3.444-1.427-3.967l0.162-.124c0.846-.642,1.355-1.029.293-2.8a1.85,1.85,0,0,0-1.1-1Z" transform="translate(-904.688 -83)"/>
</svg>
