<svg xmlns="http://www.w3.org/2000/svg" width="32" height="32" viewBox="0 0 32 32">
  <metadata><?xpacket begin="﻿" id="W5M0MpCehiHzreSzNTczkc9d"?>
<x:xmpmeta xmlns:x="adobe:ns:meta/" x:xmptk="Adobe XMP Core 5.6-c138 79.159824, 2016/09/14-01:09:01        ">
   <rdf:RDF xmlns:rdf="http://www.w3.org/1999/02/22-rdf-syntax-ns#">
      <rdf:Description rdf:about=""/>
   </rdf:RDF>
</x:xmpmeta>
                                                                                                    
                                                                                                    
                                                                                                    
                                                                                                    
                                                                                                    
                                                                                                    
                                                                                                    
                                                                                                    
                                                                                                    
                                                                                                    
                                                                                                    
                                                                                                    
                                                                                                    
                                                                                                    
                                                                                                    
                                                                                                    
                                                                                                    
                                                                                                    
                                                                                                    
                                                                                                    
                           
<?xpacket end="w"?></metadata>
<defs>
    <style>
      .cls-1 {
        fill: #9f651f;
        fill-rule: evenodd;
      }
    </style>
  </defs>
  <path class="cls-1" d="M614,200a16,16,0,1,0-16,16A16.019,16.019,0,0,0,614,200Zm-30.4,0A14.4,14.4,0,1,1,598,214.4,14.417,14.417,0,0,1,583.6,200Zm14.969,7.517,4.5-4.5a0.8,0.8,0,0,0-1.129-1.129l-3.132,3.132V193.05a0.8,0.8,0,1,0-1.606,0v11.967l-3.132-3.131a0.8,0.8,0,0,0-1.129,1.128l4.5,4.5A0.813,0.813,0,0,0,598.568,207.517Z" transform="translate(-582 -184)"/>
</svg>
