<svg xmlns="http://www.w3.org/2000/svg" width="23.97" height="24" viewBox="0 0 23.97 24">
  <metadata><?xpacket begin="﻿" id="W5M0MpCehiHzreSzNTczkc9d"?>
<x:xmpmeta xmlns:x="adobe:ns:meta/" x:xmptk="Adobe XMP Core 5.6-c138 79.159824, 2016/09/14-01:09:01        ">
   <rdf:RDF xmlns:rdf="http://www.w3.org/1999/02/22-rdf-syntax-ns#">
      <rdf:Description rdf:about=""/>
   </rdf:RDF>
</x:xmpmeta>
                                                                                                    
                                                                                                    
                                                                                                    
                                                                                                    
                                                                                                    
                                                                                                    
                                                                                                    
                                                                                                    
                                                                                                    
                                                                                                    
                                                                                                    
                                                                                                    
                                                                                                    
                                                                                                    
                                                                                                    
                                                                                                    
                                                                                                    
                                                                                                    
                                                                                                    
                                                                                                    
                           
<?xpacket end="w"?></metadata>
<defs>
    <style>
      .cls-1 {
        fill: #41403d;
        fill-rule: evenodd;
      }
    </style>
  </defs>
  <path id="Forma_1" data-name="Forma 1" class="cls-1" d="M1160.42,6.578a2.025,2.025,0,0,0-2.86.025l-0.92.916s-0.01.009-.01,0.013l-11.96,11.932a0.738,0.738,0,0,0-.09.132,0.7,0.7,0,0,0-.12.19l-1.22,2.812a0.769,0.769,0,0,0,.15.829,0.756,0.756,0,0,0,.55.237,0.777,0.777,0,0,0,.27-0.049l2.93-1.1a0.731,0.731,0,0,0,.22-0.132,0.685,0.685,0,0,0,.14-0.092l12.01-11.979V10.3l0.88-.874A2.018,2.018,0,0,0,1160.42,6.578Zm-13.46,14.091L1146.29,20l10.93-10.9,0.66,0.665Zm12.35-12.322-0.34.342-0.67-.667,0.34-.341a0.525,0.525,0,0,1,.36-0.156,0.432,0.432,0,0,1,.33.13A0.482,0.482,0,0,1,1159.31,8.348Zm-0.4,6a0.761,0.761,0,0,0-.76.763v12.6a0.764,0.764,0,0,1-.77.762H1139.3a0.764,0.764,0,0,1-.77-0.762V9.67a0.764,0.764,0,0,1,.77-0.763h12.52a0.763,0.763,0,0,0,0-1.526H1139.3A2.3,2.3,0,0,0,1137,9.67V27.711A2.3,2.3,0,0,0,1139.3,30h18.08a2.3,2.3,0,0,0,2.3-2.288v-12.6A0.763,0.763,0,0,0,1158.91,14.345Z" transform="translate(-1137 -6)"/>
</svg>
