<svg xmlns="http://www.w3.org/2000/svg" width="17" height="17" viewBox="0 0 17 17">
  <metadata><?xpacket begin="﻿" id="W5M0MpCehiHzreSzNTczkc9d"?>
<x:xmpmeta xmlns:x="adobe:ns:meta/" x:xmptk="Adobe XMP Core 5.6-c138 79.159824, 2016/09/14-01:09:01        ">
   <rdf:RDF xmlns:rdf="http://www.w3.org/1999/02/22-rdf-syntax-ns#">
      <rdf:Description rdf:about=""/>
   </rdf:RDF>
</x:xmpmeta>
                                                                                                    
                                                                                                    
                                                                                                    
                                                                                                    
                                                                                                    
                                                                                                    
                                                                                                    
                                                                                                    
                                                                                                    
                                                                                                    
                                                                                                    
                                                                                                    
                                                                                                    
                                                                                                    
                                                                                                    
                                                                                                    
                                                                                                    
                                                                                                    
                                                                                                    
                                                                                                    
                           
<?xpacket end="w"?></metadata>
<defs>
    <style>
      .cls-1 {
        fill: #a5a5a5;
        fill-rule: evenodd;
      }
    </style>
  </defs>
  <path class="cls-1" d="M686.8,446.546a0.629,0.629,0,0,0-.629-0.63H683.74a0.63,0.63,0,0,0-.63.63v2.43a0.63,0.63,0,0,0,.63.629h2.431a0.629,0.629,0,0,0,.629-0.629v-2.43Zm5.2,0a0.63,0.63,0,0,0-.63-0.63h-2.431a0.63,0.63,0,0,0-.629.63v2.43a0.629,0.629,0,0,0,.629.629h2.431a0.63,0.63,0,0,0,.63-0.629v-2.43Zm-5.2,5.2a0.628,0.628,0,0,0-.629-0.629H683.74a0.629,0.629,0,0,0-.63.629v2.43a0.629,0.629,0,0,0,.63.629h2.431a0.628,0.628,0,0,0,.629-0.629v-2.43Zm5.2,0a0.629,0.629,0,0,0-.63-0.629h-2.431a0.629,0.629,0,0,0-.629.629v2.43a0.629,0.629,0,0,0,.629.629h2.431a0.629,0.629,0,0,0,.63-0.629v-2.43Zm-10.4,0a0.629,0.629,0,0,0-.629-0.629H678.54a0.629,0.629,0,0,0-.629.629v2.43a0.629,0.629,0,0,0,.629.629h2.432a0.629,0.629,0,0,0,.629-0.629v-2.43Zm4.57,4.568H683.74a0.63,0.63,0,0,0-.63.629v2.431a0.63,0.63,0,0,0,.63.629h2.431a0.629,0.629,0,0,0,.629-0.629V456.94A0.629,0.629,0,0,0,686.171,456.311ZM688.939,460h2.431a0.63,0.63,0,0,0,.63-0.629V456.94a0.63,0.63,0,0,0-.63-0.629h-2.431a0.629,0.629,0,0,0-.629.629v2.431A0.629,0.629,0,0,0,688.939,460Zm-7.967-3.689H678.54a0.629,0.629,0,0,0-.629.629v2.431a0.629,0.629,0,0,0,.629.629h2.432a0.629,0.629,0,0,0,.629-0.629V456.94A0.629,0.629,0,0,0,680.972,456.311Zm-0.933-11.736v3.462h-3.464v-3.462h3.464m0.6-1.575h-4.661a0.978,0.978,0,0,0-.977.977v4.773a0.862,0.862,0,0,0,.862.862h4.776a0.978,0.978,0,0,0,.977-0.977v-4.658a0.978,0.978,0,0,0-.977-0.977h0Z" transform="translate(-675 -443)"/>
</svg>
