<svg xmlns="http://www.w3.org/2000/svg" width="12.875" height="11.97" viewBox="0 0 12.875 11.97">
  <metadata><?xpacket begin="﻿" id="W5M0MpCehiHzreSzNTczkc9d"?>
<x:xmpmeta xmlns:x="adobe:ns:meta/" x:xmptk="Adobe XMP Core 5.6-c138 79.159824, 2016/09/14-01:09:01        ">
   <rdf:RDF xmlns:rdf="http://www.w3.org/1999/02/22-rdf-syntax-ns#">
      <rdf:Description rdf:about=""/>
   </rdf:RDF>
</x:xmpmeta>
                                                                                                    
                                                                                                    
                                                                                                    
                                                                                                    
                                                                                                    
                                                                                                    
                                                                                                    
                                                                                                    
                                                                                                    
                                                                                                    
                                                                                                    
                                                                                                    
                                                                                                    
                                                                                                    
                                                                                                    
                                                                                                    
                                                                                                    
                                                                                                    
                                                                                                    
                                                                                                    
                           
<?xpacket end="w"?></metadata>
<defs>
    <style>
      .cls-1 {
        fill: #fff;
        fill-rule: evenodd;
      }
    </style>
  </defs>
  <path id="Forma_1_копия_2" data-name="Forma 1 копия 2" class="cls-1" d="M703.141,2486.95a0.452,0.452,0,0,0-.216-0.19,0.685,0.685,0,0,0-.28-0.06h-3.2c0.043-.35.088-0.65,0.136-0.91s0.093-.47.136-0.66a1.286,1.286,0,0,0-.064-0.75,2.512,2.512,0,0,0-.368-0.63,2.73,2.73,0,0,0-.455-0.47,3.957,3.957,0,0,0-.328-0.26,0.6,0.6,0,0,0-.543-0.08,0.679,0.679,0,0,0-.4.39l-1.454,3.37h-1.471a0.632,0.632,0,0,0-.455.19,0.665,0.665,0,0,0-.184.47v6.68a0.665,0.665,0,0,0,.184.47,0.632,0.632,0,0,0,.455.19h5.914a2.1,2.1,0,0,0,.367-0.07,1.96,1.96,0,0,0,.536-0.23,2.446,2.446,0,0,0,.543-0.45,1.589,1.589,0,0,0,.376-0.72l0.895-5.73A0.68,0.68,0,0,0,703.141,2486.95Zm-10.389-.38h-1.87a0.454,0.454,0,0,0-.463.46v7.37a0.44,0.44,0,0,0,.136.32,0.452,0.452,0,0,0,.327.14h1.87a0.454,0.454,0,0,0,.328-0.14,0.44,0.44,0,0,0,.136-0.32v-7.37A0.454,0.454,0,0,0,692.752,2486.57Z" transform="translate(-690.406 -2482.91)"/>
</svg>
