<svg xmlns="http://www.w3.org/2000/svg" width="20" height="24" viewBox="0 0 20 24">
  <metadata><?xpacket begin="﻿" id="W5M0MpCehiHzreSzNTczkc9d"?>
<x:xmpmeta xmlns:x="adobe:ns:meta/" x:xmptk="Adobe XMP Core 5.6-c138 79.159824, 2016/09/14-01:09:01        ">
   <rdf:RDF xmlns:rdf="http://www.w3.org/1999/02/22-rdf-syntax-ns#">
      <rdf:Description rdf:about=""/>
   </rdf:RDF>
</x:xmpmeta>
                                                                                                    
                                                                                                    
                                                                                                    
                                                                                                    
                                                                                                    
                                                                                                    
                                                                                                    
                                                                                                    
                                                                                                    
                                                                                                    
                                                                                                    
                                                                                                    
                                                                                                    
                                                                                                    
                                                                                                    
                                                                                                    
                                                                                                    
                                                                                                    
                                                                                                    
                                                                                                    
                           
<?xpacket end="w"?></metadata>
<defs>
    <style>
      .cls-1 {
        fill: #ffb144;
        fill-rule: evenodd;
      }
    </style>
  </defs>
  <path class="cls-1" d="M680,84a9.826,9.826,0,0,0-10,9.62,9.065,9.065,0,0,0,.178,1.806c0,0.035.026,0.141,0.068,0.322a9.179,9.179,0,0,0,.669,1.9c1.077,2.44,3.445,6.189,8.641,10.2a0.728,0.728,0,0,0,.888,0c5.191-4.015,7.564-7.764,8.641-10.2a9.075,9.075,0,0,0,.669-1.9c0.042-.181.063-0.287,0.068-0.322A9.531,9.531,0,0,0,690,93.62,9.842,9.842,0,0,0,680,84Zm8.426,11.19c0,0.01,0,.02,0,0.03s-0.021.1-.047,0.216v0.01a7.812,7.812,0,0,1-.58,1.64,0.2,0.2,0,0,1-.011.02c-0.977,2.229-3.12,5.63-7.783,9.338-4.663-3.708-6.806-7.109-7.784-9.338,0-.005,0-0.015-0.01-0.02a8.308,8.308,0,0,1-.581-1.64v-0.01c-0.031-.116-0.041-0.191-0.047-0.216s0-.02,0-0.035a7.957,7.957,0,0,1-.157-1.57,8.59,8.59,0,0,1,17.167,0A7.859,7.859,0,0,1,688.421,95.19ZM680,87.618a6.113,6.113,0,1,0,6.346,6.108A6.24,6.24,0,0,0,680,87.618Zm0,10.858a4.753,4.753,0,1,1,4.934-4.75A4.85,4.85,0,0,1,680,98.475Z" transform="translate(-670 -84)"/>
</svg>
